<?xml version="1.0" encoding="UTF-8"?>
<svg version="1.1" xmlns="http://www.w3.org/2000/svg" width="1024" height="1024" viewBox="0 0 1024 1024">
<path d="M0 0 C0.99306152 0.44714355 1.98612305 0.89428711 3.00927734 1.35498047 C30.19996547 13.7213309 54.86875913 29.15207124 78 48 C78.79591553 48.63929443 78.79591553 48.63929443 79.60791016 49.29150391 C87.98489321 56.05192107 95.68406436 63.47803275 103.3125 71.0625 C104.23160156 71.97233643 105.15070312 72.88217285 106.09765625 73.81958008 C111.38752672 79.13381682 116.30155718 84.61094712 120.97973633 90.47167969 C123.06674587 93.08353115 125.213793 95.63688863 127.375 98.1875 C133.05044408 105.14164033 138.05446659 112.51778481 143 120 C143.48903809 120.73782715 143.97807617 121.4756543 144.48193359 122.23583984 C167.13958118 156.64681912 182.46484139 194.7126464 191 235 C191.28359375 236.26328125 191.5671875 237.5265625 191.859375 238.828125 C208.14490798 316.93221174 191.33603267 404.74388128 147.76171875 471.375 C147.18035156 472.24125 146.59898437 473.1075 146 474 C145.32582031 475.010625 144.65164063 476.02125 143.95703125 477.0625 C125.17029937 504.7272096 102.31458587 530.32425396 76 551 C75.37609375 551.49113281 74.7521875 551.98226562 74.109375 552.48828125 C60.06694584 563.50247664 45.70413298 573.47759096 30 582 C28.77845215 582.66902344 28.77845215 582.66902344 27.53222656 583.3515625 C8.46143932 593.74496786 -11.19961522 602.66033612 -32 609 C-32.85851562 609.27070312 -33.71703125 609.54140625 -34.6015625 609.8203125 C-46.93052696 613.63546437 -59.39823018 616.66376916 -72.0625 619.125 C-73.28904297 619.37636719 -74.51558594 619.62773438 -75.77929688 619.88671875 C-94.74557471 623.59266153 -113.84093979 624.38637318 -133.125 624.3125 C-134.14736755 624.31034485 -135.16973511 624.3081897 -136.2230835 624.30596924 C-170.05453855 624.19204975 -202.70143026 619.30129117 -235 609 C-236.20148682 608.62004883 -236.20148682 608.62004883 -237.42724609 608.23242188 C-282.57600608 593.74269315 -323.7074613 569.02845305 -358.65625 537.12109375 C-360.79924312 535.18168497 -362.98344638 533.30670701 -365.1875 531.4375 C-368.5227214 528.53672628 -371.37349183 525.39290105 -374.2265625 522.0234375 C-376.02461917 519.97191028 -377.9157426 518.08480459 -379.875 516.1875 C-394.82475448 501.35164841 -407.33921738 483.0973888 -418 465 C-418.47002441 464.2157666 -418.94004883 463.4315332 -419.42431641 462.62353516 C-429.60892243 445.59619871 -437.84501887 428.04740189 -444.875 409.5 C-445.23231201 408.55793701 -445.58962402 407.61587402 -445.95776367 406.64526367 C-450.43950854 394.50742502 -453.59283222 382.00221295 -456.625 369.4375 C-457.07359375 367.62088867 -457.07359375 367.62088867 -457.53125 365.76757812 C-459.4408805 357.87979019 -460.90145372 350.03845739 -462 342 C-462.18353027 340.83871582 -462.36706055 339.67743164 -462.55615234 338.48095703 C-464.18779472 327.3273205 -464.30555581 316.27089809 -464.26074219 305.01147461 C-464.25007531 301.8349269 -464.26066753 298.65895192 -464.2734375 295.48242188 C-464.28554014 278.50249616 -463.33091778 261.61169726 -460.3125 244.875 C-460.14588867 243.94236328 -459.97927734 243.00972656 -459.80761719 242.04882812 C-450.71490561 193.39400108 -430.66530333 146.6668153 -401 107 C-400.58363281 106.43941895 -400.16726563 105.87883789 -399.73828125 105.30126953 C-394.8753765 98.77562542 -389.83101031 92.49295678 -384.30078125 86.51171875 C-382.42913132 84.46847443 -380.61583512 82.39627226 -378.80859375 80.296875 C-374.64552912 75.52803074 -370.22724281 71.03525884 -365.75 66.5625 C-364.90880615 65.72211182 -364.0676123 64.88172363 -363.20092773 64.01586914 C-358.23090197 59.09470532 -353.2541822 54.3936328 -347.70751953 50.12524414 C-344.90627657 47.9264326 -342.20981275 45.63126561 -339.50390625 43.31640625 C-333.27460955 38.07224093 -326.67795704 33.47214904 -319.875 29 C-319.28939301 28.61225403 -318.70378601 28.22450806 -318.10043335 27.82501221 C-308.3356761 21.36685783 -298.41200141 15.36085876 -288 10 C-287.32469238 9.6479248 -286.64938477 9.29584961 -285.95361328 8.93310547 C-249.17430297 -10.18158986 -208.43752471 -23.41352363 -167 -27 C-166.05286133 -27.08467529 -165.10572266 -27.16935059 -164.12988281 -27.2565918 C-108.05766082 -31.79557677 -51.41804029 -23.25123964 0 0 Z " fill="#101B3D" transform="translate(646,200)"/>
<path d="M0 0 C6.6 0 13.2 0 20 0 C20.33 11.88 20.66 23.76 21 36 C23.041875 33.215625 25.08375 30.43125 27.1875 27.5625 C28.49287362 25.82766135 29.79876544 24.09321233 31.10546875 22.359375 C33.61952548 18.98113044 35.90713788 15.57654616 38.05078125 11.953125 C44.94727057 0.81193703 44.94727057 0.81193703 50.71337891 -0.72167969 C57.19669563 -1.44287069 63.56481544 -0.95743624 70 0 C68.3508917 3.44797001 66.39418236 6.12054705 63.9375 9.0625 C63.12925781 10.03703125 62.32101562 11.0115625 61.48828125 12.015625 C60.66714844 13.00046875 59.84601563 13.9853125 59 15 C56.79714423 17.66682009 54.60305671 20.33958808 52.42578125 23.02734375 C50.61182198 25.25024714 48.77582075 27.44336651 46.91796875 29.62890625 C45.88220339 30.87709897 44.84703952 32.12579108 43.8125 33.375 C43.30605957 33.95805908 42.79961914 34.54111816 42.27783203 35.1418457 C40.69303932 36.9992884 40.69303932 36.9992884 39 40 C39.72331258 44.53134057 43.08185228 48.08416113 45.8125 51.6875 C46.80419756 53.01632137 47.79504556 54.34577707 48.78515625 55.67578125 C49.3073877 56.37525879 49.82961914 57.07473633 50.36767578 57.79541016 C53.20336007 61.62523802 55.97179115 65.50339514 58.75 69.375 C62.69660386 74.86527257 66.68422891 80.29784366 70.92578125 85.56640625 C72 87 72 87 72 88 C51.75764217 89.78067001 51.75764217 89.78067001 46.078125 86.11328125 C44.03251789 83.18911212 42.55424981 80.21283583 41 77 C39.16587321 74.17054082 37.20302333 71.43572827 35.25 68.6875 C34.33520065 67.36036971 33.42361092 66.03101987 32.515625 64.69921875 C32.09216797 64.07837402 31.66871094 63.4575293 31.23242188 62.81787109 C29.47266625 60.22216182 27.733918 57.61303063 26 55 C22.72226496 55.75150023 22.72226496 55.75150023 21 59 C20.6303565 62.10208984 20.6303565 62.10208984 20.5859375 65.63671875 C20.54726563 66.93544922 20.50859375 68.23417969 20.46875 69.57226562 C20.43729483 70.94400573 20.40604749 72.31575061 20.375 73.6875 C20.33680803 75.07098785 20.29775558 76.45445223 20.2578125 77.83789062 C20.16339733 81.22503472 20.08060428 84.61249911 20 88 C13.4 88 6.8 88 0 88 C0 58.96 0 29.92 0 0 Z " fill="#F8F8F9" transform="translate(277,447)"/>
<path d="M0 0 C3.43270725 2.40741841 5.8766543 4.82454791 8.1875 8.3125 C8.92033203 9.38951172 8.92033203 9.38951172 9.66796875 10.48828125 C14.25039359 19.12904128 14.27017922 29.76319184 12.34765625 39.203125 C9.49491861 47.96947756 4.59084483 53.81046344 -3.3125 58.5 C-11.84752281 62.43428004 -21.83648728 62.49117243 -30.90625 60.296875 C-33.15684482 59.38738805 -35.00563815 58.37807836 -37 57 C-37.64195312 56.56429687 -38.28390625 56.12859375 -38.9453125 55.6796875 C-43.48597143 52.20294866 -45.94796522 48.29055412 -48 43 C-48.35835938 42.11054687 -48.71671875 41.22109375 -49.0859375 40.3046875 C-50.23078922 36.1656082 -50.33033129 32.39737704 -50.3125 28.125 C-50.32861328 27.36058594 -50.34472656 26.59617187 -50.36132812 25.80859375 C-50.36863651 17.19932056 -47.51268141 9.70838443 -41.46875 3.40234375 C-30.03556082 -7.17335624 -13.60286902 -6.13834201 0 0 Z " fill="#F9FAFA" transform="translate(394,475)"/>
<path d="M0 0 C7.18542085 3.94264975 11.10338443 9.58268418 13.40625 17.3203125 C13.40625 23.5903125 13.40625 29.8603125 13.40625 36.3203125 C0.20625 36.3203125 -12.99375 36.3203125 -26.59375 36.3203125 C-23.44737696 43.89092558 -23.44737696 43.89092558 -17.59375 47.3203125 C-10.42075569 48.10883315 -3.3761543 47.82685322 3.40625 45.3203125 C4.73644124 44.97465349 6.06928653 44.63877376 7.40625 44.3203125 C8.75536472 49.21085335 9.52329968 53.21402026 9.40625 58.3203125 C-1.85388169 63.54240256 -15.38430784 64.57238514 -27.3671875 61.28515625 C-35.11331632 57.78281337 -40.32864313 52.60012996 -43.6796875 44.7890625 C-46.82128965 34.98956956 -47.29243075 23.98505297 -42.84375 14.5625 C-33.88340365 -1.51012127 -17.30357657 -7.27768073 0 0 Z " fill="#F8F8F9" transform="translate(743.59375,473.6796875)"/>
<path d="M0 0 C6.27 0 12.54 0 19 0 C19.02578125 3.04605469 19.0515625 6.09210938 19.078125 9.23046875 C19.11655602 12.18604712 19.1617129 15.14145166 19.20751953 18.09692383 C19.23571564 20.14827146 19.25693693 22.19972747 19.27099609 24.2512207 C19.29244424 27.20320054 19.33910448 30.1538793 19.390625 33.10546875 C19.39185364 34.02023483 19.39308228 34.93500092 19.39434814 35.87748718 C19.48990078 40.04737388 19.6660598 42.43577315 21.82714844 46.0871582 C23.94954534 48.30503363 23.94954534 48.30503363 27.375 48.5 C31.23210012 47.96798619 33.71241745 47.06429602 37 45 C39.03818811 41.94271783 39.25659287 41.25909599 39.31884766 37.80395508 C39.33871735 36.96331009 39.35858704 36.1226651 39.37905884 35.25654602 C39.39061005 34.35333115 39.40216125 33.45011627 39.4140625 32.51953125 C39.43342865 31.59154221 39.4527948 30.66355316 39.4727478 29.70744324 C39.53254244 26.74255575 39.57892855 23.77762943 39.625 20.8125 C39.66317988 18.80271741 39.70223162 16.79295119 39.7421875 14.78320312 C39.83988563 9.85555372 39.91945505 4.92807927 40 0 C46.27 0 52.54 0 59 0 C59 20.79 59 41.58 59 63 C53.39 63 47.78 63 42 63 C41.505 59.535 41.505 59.535 41 56 C40.55269531 56.40992188 40.10539063 56.81984375 39.64453125 57.2421875 C39.03996094 57.78101563 38.43539062 58.31984375 37.8125 58.875 C37.22082031 59.40867187 36.62914062 59.94234375 36.01953125 60.4921875 C29.55065516 65.32194799 21.68279826 64.79111617 14 64 C8.21576395 61.98846717 4.90190626 58.35736539 2 53 C0.40908907 49.52279852 -0.24720087 46.84456578 -0.22705078 43.02612305 C-0.22689972 42.06550461 -0.22674866 41.10488617 -0.22659302 40.11515808 C-0.21627045 39.0910231 -0.20594788 38.06688812 -0.1953125 37.01171875 C-0.1924826 35.95338333 -0.18965271 34.89504791 -0.18673706 33.80464172 C-0.1755629 30.43214502 -0.15046307 27.05991613 -0.125 23.6875 C-0.11496664 21.3977903 -0.10584141 19.10807643 -0.09765625 16.81835938 C-0.07563255 11.21213676 -0.04112141 5.60611375 0 0 Z " fill="#F7F7F8" transform="translate(631,472)"/>
<path d="M0 0 C5.42851839 3.41705845 7.85072032 7.54926779 9.33456421 13.72724915 C10.10264547 18.11701441 9.99285238 22.5015162 9.9453125 26.9453125 C9.9424826 27.95501099 9.93965271 28.96470947 9.93673706 30.00500488 C9.9256153 33.20398217 9.90052563 36.402671 9.875 39.6015625 C9.86495985 41.78124593 9.85583582 43.96093379 9.84765625 46.140625 C9.8257022 51.46104725 9.79122793 56.78125611 9.75 62.1015625 C3.81 62.1015625 -2.13 62.1015625 -8.25 62.1015625 C-8.2593457 60.82514893 -8.26869141 59.54873535 -8.27832031 58.23364258 C-8.31824339 53.49028848 -8.38400903 48.74758138 -8.45751953 44.00463867 C-8.48571564 41.95329104 -8.50693693 39.90183503 -8.52099609 37.8503418 C-8.54244424 34.89836196 -8.58910448 31.9476832 -8.640625 28.99609375 C-8.64185364 28.08132767 -8.64308228 27.16656158 -8.64434814 26.22407532 C-8.74077973 22.01583156 -8.89530847 19.67962759 -11.13793945 16.0246582 C-13.65989328 13.72834214 -14.81237875 13.42455755 -18.1875 13.4765625 C-19.02152344 13.46367187 -19.85554688 13.45078125 -20.71484375 13.4375 C-24.50090645 14.42922675 -25.853898 16.0112971 -28.25 19.1015625 C-28.99195958 22.39706691 -28.97150946 25.62834407 -28.95703125 28.99609375 C-28.97215256 29.94344894 -28.98727386 30.89080414 -29.00285339 31.86686707 C-29.04572747 34.88284106 -29.0545682 37.89781413 -29.0625 40.9140625 C-29.0856445 42.96291723 -29.11100974 45.01174816 -29.13867188 47.06054688 C-29.20569057 52.07476352 -29.22665296 57.08619284 -29.25 62.1015625 C-35.85 62.1015625 -42.45 62.1015625 -49.25 62.1015625 C-49.25 41.3115625 -49.25 20.5215625 -49.25 -0.8984375 C-43.64 -0.8984375 -38.03 -0.8984375 -32.25 -0.8984375 C-31.59 1.4115625 -30.93 3.7215625 -30.25 6.1015625 C-29.57904297 5.48667969 -29.57904297 5.48667969 -28.89453125 4.859375 C-28.28996094 4.32054687 -27.68539063 3.78171875 -27.0625 3.2265625 C-26.47082031 2.69289063 -25.87914062 2.15921875 -25.26953125 1.609375 C-18.2895785 -3.60196303 -7.80701692 -3.48062838 0 0 Z " fill="#F8F8F9" transform="translate(463.25,472.8984375)"/>
<path d="M0 0 C5.99170507 2.65329143 9.5052866 7.87313301 11.98371887 13.77560425 C13.25616911 18.06530597 12.98723077 22.46522697 12.91796875 26.90234375 C12.91372391 27.93565323 12.90947906 28.96896271 12.90510559 30.03358459 C12.88839394 33.31432822 12.85075511 36.59444392 12.8125 39.875 C12.79744348 42.10741297 12.78375677 44.33983562 12.77148438 46.57226562 C12.73851493 52.02758346 12.68678414 57.48243549 12.625 62.9375 C6.355 62.9375 0.085 62.9375 -6.375 62.9375 C-6.43558594 59.87984375 -6.49617187 56.8221875 -6.55859375 53.671875 C-6.62040605 50.70977359 -6.68378428 47.74770954 -6.74731445 44.78564453 C-6.79062009 42.72741013 -6.83229829 40.66914082 -6.87231445 38.61083984 C-6.93012275 35.65191121 -6.99378696 32.6931576 -7.05859375 29.734375 C-7.07530624 28.81444763 -7.09201874 27.89452026 -7.10923767 26.94671631 C-7.1391555 25.65583099 -7.1391555 25.65583099 -7.16967773 24.33886719 C-7.19299416 23.20635529 -7.19299416 23.20635529 -7.21678162 22.05096436 C-7.38118508 19.8548804 -7.59555687 18.00249983 -8.375 15.9375 C-11.03455769 15.05098077 -12.92663183 14.68647681 -15.6875 14.5625 C-16.42613281 14.51351563 -17.16476562 14.46453125 -17.92578125 14.4140625 C-21.60924793 15.20127866 -24.12176586 16.98842384 -26.375 19.9375 C-27.25649983 23.2325233 -27.21344775 26.43606085 -27.1796875 29.83203125 C-27.20024704 31.25306404 -27.20024704 31.25306404 -27.22122192 32.70280457 C-27.25851617 35.7190197 -27.25480742 38.73358705 -27.25 41.75 C-27.26812715 43.79885386 -27.2889299 45.84768591 -27.3125 47.89648438 C-27.36936908 52.91111836 -27.3707545 57.92144312 -27.375 62.9375 C-33.645 62.9375 -39.915 62.9375 -46.375 62.9375 C-46.375 42.1475 -46.375 21.3575 -46.375 -0.0625 C-40.765 -0.0625 -35.155 -0.0625 -29.375 -0.0625 C-29.375 2.5775 -29.375 5.2175 -29.375 7.9375 C-28.715 7.9375 -28.055 7.9375 -27.375 7.9375 C-27.045 6.9475 -26.715 5.9575 -26.375 4.9375 C-18.54586974 -1.80835438 -9.76767345 -2.94521451 0 0 Z " fill="#F8F8F9" transform="translate(607.375,472.0625)"/>
<path d="M0 0 C0 5.94 0 11.88 0 18 C4.95 18 9.9 18 15 18 C15 22.62 15 27.24 15 32 C10.05 32 5.1 32 0 32 C0.0740799 36.34261485 0.15696712 40.68319814 0.26245117 45.02490234 C0.29565355 46.50103138 0.32370017 47.97728594 0.34643555 49.45361328 C0.38006951 51.57899332 0.43238519 53.70322804 0.48828125 55.828125 C0.51446533 57.1059082 0.54064941 58.38369141 0.56762695 59.70019531 C1.018663 63.14243315 1.52007803 64.61181738 4 67 C6.7386225 67.48340432 6.7386225 67.48340432 9.6875 67.25 C11.440625 67.1675 13.19375 67.085 15 67 C15 71.62 15 76.24 15 81 C11.10429113 82.29856962 7.37469608 82.26324136 3.3125 82.3125 C2.53455078 82.34150391 1.75660156 82.37050781 0.95507812 82.40039062 C-4.8197565 82.46300351 -9.23376876 81.35797727 -14 78 C-15.62109375 75.96484375 -15.62109375 75.96484375 -16.4375 73.9375 C-16.72496094 73.26589844 -17.01242187 72.59429688 -17.30859375 71.90234375 C-18.91410662 67.48491569 -19.12966932 63.70329586 -19.09765625 59.05078125 C-19.0962413 58.27816452 -19.09482635 57.50554779 -19.09336853 56.70951843 C-19.08777466 54.24380611 -19.07522333 51.77818485 -19.0625 49.3125 C-19.05748421 47.63997527 -19.05292144 45.96744912 -19.04882812 44.29492188 C-19.03780724 40.19657954 -19.02054684 36.09830521 -19 32 C-22.3 32 -25.6 32 -29 32 C-29 27.38 -29 22.76 -29 18 C-25.7 18 -22.4 18 -19 18 C-19 13.05 -19 8.1 -19 3 C-16.20869212 2.49792321 -13.41699129 1.99824925 -10.625 1.5 C-9.8309375 1.35691406 -9.036875 1.21382813 -8.21875 1.06640625 C-2.2265625 0 -2.2265625 0 0 0 Z " fill="#F8F8F9" transform="translate(506,454)"/>
<path d="M0 0 C6.27 0 12.54 0 19 0 C19 20.79 19 41.58 19 63 C12.73 63 6.46 63 0 63 C0 42.21 0 21.42 0 0 Z " fill="#F7F7F8" transform="translate(530,472)"/>
<path d="M0 0 C4.25873107 2.22194664 6.0136194 5.10651279 7.49609375 9.6640625 C9.14424382 17.30432405 8.47687277 24.97587242 5 32 C2.8935363 35.03578592 1.54688285 36.65402435 -2.11328125 37.47265625 C-6.21580848 37.7415614 -9.14070489 37.35781975 -12.4375 34.8125 C-16.87472145 29.9423789 -17.34251571 25.54836114 -17.3125 19.125 C-17.32861328 18.44308594 -17.34472656 17.76117188 -17.36132812 17.05859375 C-17.36713267 10.96382426 -15.96805095 6.25747021 -11.875 1.5625 C-7.84879411 -0.62565538 -4.48571633 -0.7829614 0 0 Z " fill="#192548" transform="translate(380,485)"/>
<path d="M0 0 C3.63467079 1.62400184 4.77408696 2.66113044 7 6 C7.67226891 12.94677871 7.67226891 12.94677871 5.125 16.9375 C1.47949949 20.47577991 -1.58098029 20.46979406 -6.51171875 20.3984375 C-9 20 -9 20 -12.125 17.5625 C-14.33385504 14.23343991 -14.73230168 11.06628447 -14.47265625 7.125 C-14 5 -14 5 -12.0625 1.9375 C-7.93658686 -0.67277158 -4.75965746 -0.80335416 0 0 Z " fill="#F8F8FA" transform="translate(543,443)"/>
<path d="M0 0 C2.35796411 1.88637129 3.28741849 2.88610427 4.1875 5.75 C4.1875 7.73 4.1875 9.71 4.1875 11.75 C-3.4025 11.75 -10.9925 11.75 -18.8125 11.75 C-17.80624473 5.71246837 -16.90303076 2.98797055 -12 -0.5625 C-7.71562169 -1.9090189 -4.09874171 -1.82166298 0 0 Z " fill="#1C2748" transform="translate(735.8125,485.25)"/>
</svg>
